<svg xmlns="http://www.w3.org/2000/svg" viewBox="0 0 1440 560" role="img" aria-hidden="true">
  <defs>
    <linearGradient id="fade" x1="0" x2="1" y1="0" y2="0">
      <stop offset="0%" stop-color="#0B1F3B" stop-opacity="0"/>
      <stop offset="40%" stop-color="#0B1F3B" stop-opacity="0.15"/>
      <stop offset="70%" stop-color="#0B1F3B" stop-opacity="0.6"/>
      <stop offset="100%" stop-color="#0B1F3B" stop-opacity="1"/>
    </linearGradient>
    <filter id="soft" x="-20%" y="-20%" width="140%" height="140%">
      <feGaussianBlur in="SourceGraphic" stdDeviation="2.5"/>
    </filter>
  </defs>
  <rect width="1440" height="560" fill="url(#fade)"/>

  <!-- Right-side strong silhouettes (abstract crowd with raised arms) -->
  <g transform="translate(740, 0)" fill="#FFFFFF" fill-opacity="0.42" filter="url(#soft)">
    <!-- Large figures -->
    <path d="M560 430c0-100 64-170 144-170s144 70 144 170v130H560V430z"/>
    <path d="M360 460c0-90 70-150 152-150s152 60 152 150v100H360V460z"/>
    <path d="M210 490c0-80 60-130 130-130s130 50 130 130v70H210v-70z"/>
    <!-- Raised arms (stylized) -->
    <path d="M845 260c20-34 48-52 72-52 14 0 28 6 40 14l-16 28c-9-6-17-9-26-9-16 0-33 15-45 41l-25-22z"/>
    <path d="M640 290c18-30 44-46 67-46 12 0 24 5 35 12l-15 26c-8-5-15-7-22-7-14 0-29 13-41 35l-24-20z"/>
    <path d="M500 315c14-24 36-38 55-38 10 0 20 4 29 10l-12 22c-7-4-12-6-18-6-12 0-25 11-35 28l-19-16z"/>
  </g>
</svg>

