<svg xmlns="http://www.w3.org/2000/svg" viewBox="0 0 1440 560" role="img" aria-hidden="true">
  <defs>
    <!-- Fade from left to right so art doesn't compete with title -->
    <linearGradient id="fadeRight" x1="0" y1="0" x2="1" y2="0">
      <stop offset="0%" stop-color="#0B1F3B" stop-opacity="0"/>
      <stop offset="55%" stop-color="#0B1F3B" stop-opacity="0.15"/>
      <stop offset="80%" stop-color="#0B1F3B" stop-opacity="0.7"/>
      <stop offset="100%" stop-color="#0B1F3B" stop-opacity="1"/>
    </linearGradient>
    <filter id="blur" x="-20%" y="-20%" width="140%" height="140%">
      <feGaussianBlur stdDeviation="1.5"/>
    </filter>
  </defs>

  <!-- Fade panel -->
  <rect width="1440" height="560" fill="url(#fadeRight)"/>

  <!-- Crowd silhouettes on right side -->
  <g transform="translate(820, 60)" fill="#FFFFFF" fill-opacity="0.55" filter="url(#blur)">
    <!-- Person 1 (tall, fist up) -->
    <circle cx="520" cy="300" r="26"/>
    <rect x="496" y="320" width="48" height="120" rx="14"/>
    <rect x="540" y="300" width="14" height="70" transform="rotate(-25 540 300)"/>
    <circle cx="575" cy="270" r="10"/>

    <!-- Person 2 -->
    <circle cx="420" cy="320" r="24"/>
    <rect x="398" y="338" width="44" height="110" rx="14"/>
    <rect x="372" y="330" width="12" height="60" transform="rotate(18 372 330)"/>
    <circle cx="360" cy="315" r="9"/>

    <!-- Person 3 (center large) -->
    <circle cx="300" cy="330" r="30"/>
    <rect x="270" y="354" width="60" height="140" rx="18"/>
    <rect x="332" y="340" width="14" height="80" transform="rotate(-20 332 340)"/>
    <circle cx="365" cy="310" r="10"/>

    <!-- Person 4 -->
    <circle cx="200" cy="340" r="22"/>
    <rect x="182" y="358" width="40" height="110" rx="12"/>
    <rect x="210" y="340" width="12" height="60" transform="rotate(-12 210 340)"/>
    <circle cx="235" cy="322" r="8"/>

    <!-- Person 5 (short) -->
    <circle cx="120" cy="360" r="20"/>
    <rect x="104" y="376" width="34" height="96" rx="10"/>

    <!-- Ground base to unify shapes -->
    <rect x="-40" y="470" width="720" height="90"/>
  </g>
</svg>

