<svg xmlns="http://www.w3.org/2000/svg" viewBox="0 0 1440 560" role="img" aria-hidden="true">
  <defs>
    <linearGradient id="fadeRight" x1="0" y1="0" x2="1" y2="0">
      <stop offset="0%" stop-color="#0B1F3B" stop-opacity="0"/>
      <stop offset="55%" stop-color="#0B1F3B" stop-opacity="0.1"/>
      <stop offset="80%" stop-color="#0B1F3B" stop-opacity="0.7"/>
      <stop offset="100%" stop-color="#0B1F3B" stop-opacity="1"/>
    </linearGradient>
  </defs>
  <rect width="1440" height="560" fill="url(#fadeRight)"/>

  <!-- CLEAR PEOPLE SILHOUETTES ON RIGHT -->
  <g transform="translate(850,120)" fill="#FFFFFF" fill-opacity="0.75" stroke="#FFFFFF" stroke-opacity="0.85" stroke-width="2">
    <!-- Center person (large) -->
    <circle cx="240" cy="140" r="40"/>
    <rect x="195" y="180" width="90" height="140" rx="22"/>
    <!-- Left arm down -->
    <rect x="188" y="210" width="18" height="90" rx="9" transform="rotate(10 188 210)"/>
    <!-- Right arm up with fist -->
    <rect x="270" y="170" width="18" height="110" rx="9" transform="rotate(-35 270 170)"/>
    <rect x="315" y="120" width="34" height="34" rx="6"/>

    <!-- Person right -->
    <circle cx="400" cy="170" r="34"/>
    <rect x="370" y="205" width="70" height="120" rx="18"/>
    <rect x="430" y="180" width="16" height="90" rx="8" transform="rotate(-25 430 180)"/>
    <rect x="468" y="140" width="28" height="28" rx="5"/>

    <!-- Person left -->
    <circle cx="120" cy="180" r="30"/>
    <rect x="95" y="210" width="60" height="110" rx="16"/>
    <rect x="70" y="205" width="14" height="80" rx="7" transform="rotate(25 70 205)"/>

    <!-- Ground base -->
    <rect x="-40" y="300" width="720" height="120"/>
  </g>
</svg>

