<svg xmlns="http://www.w3.org/2000/svg" viewBox="0 0 1440 560" role="img" aria-hidden="true">
  <!-- Dark silhouettes for contrast on navy background -->
  <g transform="translate(760, 80)" fill="#000000" fill-opacity="0.35">
    <!-- base ground to unify -->
    <rect x="-60" y="360" width="760" height="140"/>
    <!-- Center tall figure with raised fist -->
    <circle cx="300" cy="170" r="38"/>
    <rect x="262" y="200" width="76" height="150" rx="20"/>
    <rect x="330" y="170" width="16" height="110" rx="8" transform="rotate(-28 330 170)"/>
    <rect x="368" y="132" width="30" height="30" rx="6"/>

    <!-- Right figure -->
    <circle cx="450" cy="190" r="32"/>
    <rect x="420" y="220" width="66" height="130" rx="18"/>
    <rect x="482" y="192" width="14" height="90" rx="7" transform="rotate(-20 482 192)"/>

    <!-- Left figure with arm up -->
    <circle cx="150" cy="200" r="30"/>
    <rect x="124" y="228" width="58" height="120" rx="16"/>
    <rect x="96" y="205" width="14" height="95" rx="7" transform="rotate(22 96 205)"/>
    <rect x="78" y="170" width="26" height="26" rx="5"/>

    <!-- Short figures -->
    <circle cx="40" cy="240" r="24"/>
    <rect x="26" y="260" width="40" height="95" rx="10"/>

    <circle cx="560" cy="210" r="28"/>
    <rect x="536" y="236" width="54" height="110" rx="14"/>
  </g>
</svg>

